# Exported from Figuro at https://www.figuro.io

mtllib newscene.mtl
o cube1
v -1007.2987323126572 0 -1455.408165373515
v -1001.8093659240325 0 -1455.408165373515
v -1001.8093659240325 256 -1455.408165373515
v -1007.2987323126572 256 -1455.408165373515
v -1001.8093659240325 0 -1455.4081653735154
v -1001.8093659240325 256 -1455.4081653735154
v -1007.2987323126572 0 -1455.4081653735154
v -1007.2987323126572 256 -1455.4081653735154
# 8 vertices
vt -3.934760673096317 2
vt -3.913317835640752 2
vt -3.913317835640752 1
vt -3.934760673096317 1
vt 5.685188145990293 2
vt 5.685188145990295 2
vt 5.685188145990295 1
vt 5.685188145990293 1
vt 3.913317835640752 2
vt 3.934760673096317 2
vt 3.934760673096317 1
vt 3.913317835640752 1
vt -5.685188145990295 2
vt -5.685188145990293 2
vt -5.685188145990293 1
vt -5.685188145990295 1
vt -3.934760673096317 -4.685188145990293
vt -3.913317835640752 -4.685188145990293
vt -3.913317835640752 -4.685188145990295
vt -3.934760673096317 -4.685188145990295
vt -3.934760673096317 6.685188145990295
vt -3.913317835640752 6.685188145990295
vt -3.913317835640752 6.685188145990293
vt -3.934760673096317 6.685188145990293
# 24 uvs
vn -7.761021455128987e-11 -1.6641832155148576e-12 0.3333333333333333
vn 7.761021455128987e-11 -1.6641832155148576e-12 0.3333333333333333
vn 7.761021455128987e-11 1.6641832155148576e-12 0.3333333333333333
vn -7.761021455128987e-11 1.6641832155148576e-12 0.3333333333333333
vn 7.761021455128987e-11 -1.6641832155148576e-12 -0.3333333333333333
vn 7.761021455128987e-11 1.6641832155148576e-12 -0.3333333333333333
vn -7.761021455128987e-11 -1.6641832155148576e-12 -0.3333333333333333
vn -7.761021455128987e-11 1.6641832155148576e-12 -0.3333333333333333
# 8 normals
usemtl 1cac78
f 1/4/1 2/3/2 3/2/3 4/1/4 
f 2/8/2 5/7/5 6/6/6 3/5/3 
f 5/12/5 7/11/7 8/10/8 6/9/6 
f 7/16/7 1/15/1 4/14/4 8/13/8 
f 7/20/7 5/19/5 2/18/2 1/17/1 
f 4/24/4 3/23/3 6/22/6 8/21/8 
# 6 polygons
o Mesh
v -298.75438977142596 127.18185158089227 20.836168162247304
v -644.4615324730962 127.18185158089227 20.836168162247304
v -783.9406796282931 383.18185158089227 20.836168162247304
v -236.25026632466052 383.18185158089227 20.836168162247304
v -890.0580564614615 383.18185158089227 -278.2494307582465
v -890.0580564614615 127.18185158089227 -671.3632214375575
v -890.0580564614615 127.18185158089227 -967.9290138903738
v -890.0580564614615 383.18185158089227 -923.0222396883476
v -304.42139826470634 127.18185158089227 -1152.4556405027167
v 150.90210559768593 127.18185158089227 -926.4696833154209
v -216.23795982016338 383.18185158089227 -1135.3343407779078
v 211.72506634923036 383.18185158089227 -922.9279236057973
# 12 vertices
vt -1.1670093350446327 1.4968041077378604
vt -2.517427861223032 1.4968041077378604
vt -3.06226827979802 2.4968041077378604
vt -0.9228526028307051 2.4968041077378604
vt -1.0869118388994004 2.4968041077378604
vt -2.622512583740459 1.4968041077378604
vt -3.7809727105092725 1.4968041077378604
vt -3.6055556237826076 2.4968041077378604
vt -1.1891460869715091 -3.5017798457137372
vt -3.476789283052584 -2.7809727105092725
vt -3.476789283052584 -1.622512583740459
vt -2.517427861223032 1.0813912818837785
vt -1.1670093350446327 1.0813912818837785
vt 0.5894613499909607 -2.6190222004508628
vt -3.06226827979802 0.9186087181162215
vt -3.476789283052584 2.0869118388994004
vt -3.476789283052584 4.605555623782608
vt -0.8446795305475132 5.434899768663702
vt 0.8270510404266811 4.605187201585146
vt -0.9228526028307051 0.9186087181162215
vt -2.622512583740459 1.4968041077378604
vt -1.0869118388994004 2.4968041077378604
vt 0.08139128188377853 2.4968041077378604
vt 0.08139128188377853 1.4968041077378604
vt 3.6190222004508628 1.4968041077378604
vt -0.08139128188377853 1.4968041077378604
vt -0.08139128188377853 2.4968041077378604
vt 3.605187201585146 2.4968041077378604
vt 0.8446795305475132 2.4968041077378604
vt 3.476789283052584 2.4968041077378604
vt 3.476789283052584 1.4968041077378604
vt 1.1891460869715091 1.4968041077378604
vt 0.8446795305475132 2.4968041077378604
vt 1.1891460869715091 1.4968041077378604
vt -0.5894613499909607 1.4968041077378604
vt -0.8270510404266811 2.4968041077378604
# 36 uvs
vn 0.29406287801261893 -0.4051307646943172 0.47291579546956136
vn -0.2794577882057093 -0.4855932316333722 0.4324866443821624
vn -0.2794577882057093 0.18107343503329443 0.4324866443821624
vn 0.29406287801261893 0.2615359019723495 0.47291579546956136
vn -0.6127911215390426 0.18107343503329454 0.09915331104882898
vn -0.6127911215390426 -0.48559323163337215 0.099153311048829
vn -0.43213414004770345 -0.278328405887258 -0.3135665314735499
vn -0.43213414004770345 0.38833826077940864 -0.3135665314735499
vn 0.04875070561733027 -0.3092720984557342 -0.6108578872341351
vn 0.4416143903443193 -0.43607445726279326 -0.15770889362435708
vn 0.04875070561733027 0.35739456821093246 -0.6108578872341351
vn 0.4416143903443193 0.2305922094038734 -0.15770889362435708
# 12 normals
usemtl ffe599
f 12/28/12 11/27/11 10/26/10 9/25/9 
f 16/32/16 15/31/15 14/30/14 13/29/13 
f 18/38/18 9/37/9 10/36/10 14/35/14 15/34/15 17/33/17 
f 12/44/12 20/43/20 19/42/19 16/41/16 13/40/13 11/39/11 
f 10/48/10 11/47/11 13/46/13 14/45/14 
f 20/52/20 12/51/12 9/50/9 18/49/18 
f 17/56/17 15/55/15 16/54/16 19/53/19 
f 20/60/20 18/59/18 17/58/17 19/57/19 
# 8 polygons